<svg width="64" height="64" viewBox="0 0 64 64" fill="none" xmlns="http://www.w3.org/2000/svg">

  <!-- Background -->
  <rect width="64" height="64" rx="14" fill="#16365C"></rect>

  <!-- Resume document -->
  <rect x="17" y="12" width="30" height="40" rx="4" fill="white"></rect>

  <!-- Resume profile -->
  <circle cx="27" cy="24" r="4" fill="#D56A4A"></circle>
  <path d="M21 34C21 30.7 23.7 28 27 28C30.3 28 33 30.7 33 34" stroke="#D56A4A" stroke-width="3" stroke-linecap="round"></path>

  <!-- Resume lines -->
  <rect x="36" y="21" width="7" height="3" rx="1.5" fill="#16365C"></rect>
  <rect x="36" y="27" width="7" height="3" rx="1.5" fill="#16365C"></rect>
  <rect x="22" y="40" width="20" height="3" rx="1.5" fill="#16365C"></rect>
  <rect x="22" y="46" width="14" height="3" rx="1.5" fill="#16365C"></rect>

  <!-- AI sparkle -->
  <path d="M49 8L50.8 12.2L55 14L50.8 15.8L49 20L47.2 15.8L43 14L47.2 12.2L49 8Z" fill="#D56A4A"></path>

</svg>